<svg xmlns="http://www.w3.org/2000/svg" viewBox="0 0 32 32" fill="none">
  <defs>
    <linearGradient id="g" x1="0" y1="0" x2="32" y2="32" gradientUnits="userSpaceOnUse">
      <stop stop-color="#7c5cff"/>
      <stop offset="1" stop-color="#ff6b9d"/>
    </linearGradient>
  </defs>
  <path d="M16 4c-3 0-5 1-6 3-3 0-5 3-5 6 0 2 1 4 2 5-1 1-2 3-2 5 0 3 2 5 5 5 1 2 3 3 6 3s5-1 6-3c3 0 5-2 5-5 0-2-1-4-2-5 1-1 2-3 2-5 0-3-2-6-5-6-1-2-3-3-6-3z" fill="url(#g)"/>
  <path d="M12 14c0 1 .5 2 1.5 2M20 14c0 1-.5 2-1.5 2M12 22c1 1 2.5 1.5 4 1.5s3-.5 4-1.5" stroke="#0a0a14" stroke-width="1.6" stroke-linecap="round" fill="none"/>
</svg>
